<?xml version="1.0" encoding="utf-8"?>
<!-- Generator: Adobe Illustrator 25.2.1, SVG Export Plug-In . SVG Version: 6.00 Build 0)  -->
<svg version="1.1" id="icons" xmlns="http://www.w3.org/2000/svg" xmlns:xlink="http://www.w3.org/1999/xlink" x="0px" y="0px"
	 viewBox="0 0 48 36" style="enable-background:new 0 0 48 36;" xml:space="preserve">
<style type="text/css">
	.st0{fill:#5F249F;}
</style>
<g>
	<path class="st0" d="M17,15c0-1.6,3.3-2.8,5.9-3H23c0.1,0,0.2,0,0.4,0h0.1c2.6,0,6.5,1.3,6.5,3v3h2v-3c0-2.5-2.7-3.9-5.4-4.6
		c0.9-1,1.4-2.3,1.4-3.7V5.3c0-2.8-2.2-5-5-5s-5,2.2-5,5v1.4c0,1.5,0.6,2.9,1.6,3.9C17.2,11.3,15,12.7,15,15v3h2V15z M20,5.3
		c0-1.7,1.3-3,3-3s3,1.3,3,3v1.4c0.1,1.6-1.1,3-2.7,3.3h-0.5c-1.7-0.1-2.9-1.6-2.8-3.3V5.3z"/>
	<path class="st0" d="M27.6,28.4c0.9-1,1.4-2.3,1.4-3.7v-1.4c0-2.8-2.2-5-5-5s-5,2.2-5,5v1.4c0,1.5,0.6,2.9,1.6,3.9
		C18.2,29.3,16,30.7,16,33v3h2v-3c0-1.6,3.3-2.8,5.9-3H24c0.1,0,0.2,0,0.4,0h0.1c2.6,0,6.5,1.3,6.5,3v3h2v-3
		C33,30.5,30.3,29,27.6,28.4z M27,24.7c0.1,1.6-1.1,3-2.7,3.3h-0.5c-1.7-0.1-2.9-1.6-2.8-3.3v-1.4c0-1.7,1.3-3,3-3s3,1.3,3,3V24.7z"
		/>
	<path class="st0" d="M42.6,19.4c0.9-1,1.4-2.3,1.4-3.7v-1.4c0-2.8-2.2-5-5-5s-5,2.2-5,5v1.4c0,1.5,0.6,2.9,1.6,3.9
		C33.2,20.3,31,21.7,31,24v3h2v-3c0-1.6,3.3-2.8,5.9-3H39c0.1,0,0.2,0,0.4,0h0.1c2.6,0,6.5,1.3,6.5,3v3h2v-3
		C48,21.5,45.3,20,42.6,19.4z M42,15.7c0.1,1.6-1.1,3-2.7,3.3h-0.5c-1.7-0.1-2.9-1.6-2.8-3.3v-1.4c0-1.7,1.3-3,3-3s3,1.3,3,3V15.7z"
		/>
	<path class="st0" d="M17,27v-3c0-2.5-2.7-3.9-5.4-4.6c0.9-1,1.4-2.3,1.4-3.7v-1.4c0.1-2.8-2.1-5.2-4.9-5.3C8.1,9,8,9,8,9
		c-2.8,0.1-5.1,2.4-5,5.2c0,0,0,0.1,0,0.1v1.4c0,1.5,0.6,2.9,1.6,3.9C2.2,20.3,0,21.7,0,24v3h2v-3c0-1.6,3.3-2.8,5.9-3H8
		c0.1,0,0.2,0,0.4,0h0.1c2.6,0,6.5,1.3,6.5,3v3H17z M11,14.3v1.4c0.1,1.6-1.1,3-2.7,3.3H7.8c-1.7-0.1-2.9-1.6-2.8-3.3v-1.4
		c-0.1-1.7,1.2-3.2,2.9-3.3c0,0,0,0,0.1,0C9.7,11.1,11.1,12.5,11,14.3C11,14.3,11,14.3,11,14.3z"/>
</g>
</svg>
