<?xml version="1.0" encoding="utf-8"?>
<!-- Generator: Adobe Illustrator 25.2.1, SVG Export Plug-In . SVG Version: 6.00 Build 0)  -->
<svg version="1.1" id="icons" xmlns="http://www.w3.org/2000/svg" xmlns:xlink="http://www.w3.org/1999/xlink" x="0px" y="0px"
	 viewBox="0 0 47 48" style="enable-background:new 0 0 47 48;" xml:space="preserve">
<style type="text/css">
	.st0{fill:#5F249F;}
</style>
<g>
	<path class="st0" d="M10,12c-2.2,0-4,1.8-4,4s1.8,4,4,4s4-1.8,4-4S12.2,12,10,12z M10,18c-1.1,0-2-0.9-2-2s0.9-2,2-2s2,0.9,2,2
		S11.1,18,10,18z"/>
	<path class="st0" d="M20,12c-2.2,0-4,1.8-4,4s1.8,4,4,4s4-1.8,4-4S22.2,12,20,12z M20,18c-1.1,0-2-0.9-2-2s0.9-2,2-2s2,0.9,2,2
		S21.1,18,20,18z"/>
	<path class="st0" d="M46.5,28.3C45.9,27.5,45,27,44,27H19.3c-1.2,0-2.3,0.8-2.8,1.9l-5.1,12.8l-8.2-3.8c-0.5-0.2-0.7-0.8-0.5-1.3
		l2.7-6C5.6,30.2,5.9,30,6.3,30H11v-4h17v-5.2c1.2-0.4,2-1.6,2-2.8v-3c0-1.3-0.8-2.4-2-2.8V11c0-2.8-2.2-5-5-5h-7V0h-2v6H7
		c-2.8,0-5,2.2-5,5v1.2c-1.2,0.4-2,1.6-2,2.8v3c0,1.3,0.8,2.4,2,2.8V26h7v2H6.3c-1.2,0-2.3,0.7-2.7,1.8l-2.7,6c-0.7,1.5,0,3.3,1.5,4
		l10.1,4.6l5.9-14.7c0.2-0.4,0.5-0.6,0.9-0.6H44c0.3,0,0.6,0.2,0.8,0.5c0.2,0.3,0.2,0.6,0.1,0.9l-6.3,15c-0.2,0.4-0.5,0.6-0.9,0.6
		H12.2l-8.8-3.9l-0.8,1.8l9.2,4.1h25.9c1.2,0,2.3-0.7,2.8-1.8l6.3-15C47.2,30.2,47.1,29.2,46.5,28.3z M4,24v-5H3c-0.6,0-1-0.4-1-1
		v-3c0-0.6,0.4-1,1-1h1v-3c0-1.7,1.3-3,3-3h16c1.7,0,3,1.3,3,3v3h1c0.6,0,1,0.4,1,1v3c0,0.6-0.4,1-1,1h-1v5H4z"/>
	<rect x="28" y="36" class="st0" width="3" height="2"/>
</g>
</svg>
