<?xml version="1.0" encoding="utf-8"?>
<!-- Generator: Adobe Illustrator 25.2.1, SVG Export Plug-In . SVG Version: 6.00 Build 0)  -->
<svg version="1.1" id="icons" xmlns="http://www.w3.org/2000/svg" xmlns:xlink="http://www.w3.org/1999/xlink" x="0px" y="0px"
	 viewBox="0 0 48 46" style="enable-background:new 0 0 48 46;" xml:space="preserve">
<style type="text/css">
	.st0{fill:#5F249F;}
</style>
<g>
	<path class="st0" d="M47,39h-2V14c0-1.7-1.3-3-3-3H28v2h14c0.6,0,1,0.4,1,1v25H29c-0.3,0-0.5,0.1-0.7,0.3L27.6,40h-7.2l-0.7-0.7
		C19.5,39.1,19.3,39,19,39H5v-4H3v4H1c-0.6,0-1,0.4-1,1v2c0,2.2,1.8,4,4,4h40c2.2,0,4-1.8,4-4v-2C48,39.4,47.6,39,47,39z M46,42
		c0,1.1-0.9,2-2,2H4c-1.1,0-2-0.9-2-2v-1h16.6l0.7,0.7c0.2,0.2,0.4,0.3,0.7,0.3h8c0.3,0,0.5-0.1,0.7-0.3l0.7-0.7H46V42z"/>
	<polygon class="st0" points="21,23 16.4,23 17.7,21.7 16.3,20.3 12.6,24 16.3,27.7 17.7,26.3 16.4,25 21,25 	"/>
	<polygon class="st0" points="31,25 35.6,25 34.3,26.3 35.7,27.7 39.4,24 35.7,20.3 34.3,21.7 35.6,23 31,23 	"/>
	<path class="st0" d="M2,34h23c1.1,0,2-0.9,2-2v-5h-2v5H2V6.4L6.4,2H25v19h2V2c0-1.1-0.9-2-2-2H6C5.7,0,5.5,0.1,5.3,0.3l-5,5
		C0.1,5.5,0,5.7,0,6v26C0,33.1,0.9,34,2,34z"/>
	<path class="st0" d="M6,6H3v2h4c0.6,0,1-0.4,1-1V3H6V6z"/>
	<rect x="23" y="23" class="st0" width="2" height="2"/>
	<rect x="27" y="23" class="st0" width="2" height="2"/>
</g>
</svg>
