<?xml version="1.0" encoding="utf-8"?>
<!-- Generator: Adobe Illustrator 25.2.1, SVG Export Plug-In . SVG Version: 6.00 Build 0)  -->
<svg version="1.1" id="icons" xmlns="http://www.w3.org/2000/svg" xmlns:xlink="http://www.w3.org/1999/xlink" x="0px" y="0px"
	 viewBox="0 0 48 44" style="enable-background:new 0 0 48 44;" xml:space="preserve">
<style type="text/css">
	.st0{fill:#5F249F;}
</style>
<g>
	<rect x="35" y="21" class="st0" width="2" height="2"/>
	<rect x="19" y="21" class="st0" width="2" height="2"/>
	<path class="st0" d="M33,22c0-2.8-2.2-5-5-5s-5,2.2-5,5s2.2,5,5,5S33,24.8,33,22z M25,22c0-1.7,1.3-3,3-3s3,1.3,3,3s-1.3,3-3,3
		S25,23.7,25,22z"/>
	<path class="st0" d="M4,16c1.8,0,3.4-1.2,3.9-3h3.7l3,3H19v-2h-3.6l-3-3H7.9C7.3,8.9,5.1,7.6,3,8.1C0.8,8.7-0.4,10.9,0.1,13
		C0.6,14.8,2.2,16,4,16z M4,10c1.1,0,2,0.9,2,2s-0.9,2-2,2s-2-0.9-2-2S2.9,10,4,10z"/>
	<path class="st0" d="M4,26c1.8,0,3.4-1.2,3.9-3H17v-2H7.9c-0.6-2.1-2.7-3.4-4.9-2.9c-2.1,0.6-3.4,2.7-2.9,4.9C0.6,24.8,2.2,26,4,26
		z M4,20c1.1,0,2,0.9,2,2s-0.9,2-2,2s-2-0.9-2-2S2.9,20,4,20z"/>
	<path class="st0" d="M15.4,30H41v-1c-0.1-1,0.6-1.9,1.6-2c0.1,0,0.2,0,0.4,0h1V17h-1c-1,0.1-1.9-0.7-2-1.7c0-0.1,0-0.2,0-0.3v-1H21
		v2h18.1c0.3,1.5,1.4,2.6,2.9,2.9v6.2c-1.5,0.3-2.6,1.4-2.9,2.9H14.6l-3,3H7.9c-0.6-2.1-2.7-3.4-4.9-2.9s-3.4,2.7-2.9,4.9
		c0.6,2.1,2.7,3.4,4.9,2.9c1.4-0.4,2.5-1.5,2.9-2.9h4.5L15.4,30z M4,34c-1.1,0-2-0.9-2-2s0.9-2,2-2s2,0.9,2,2S5.1,34,4,34z"/>
	<path class="st0" d="M20.4,10l-4-4c1.1-1.9,0.4-4.4-1.5-5.5S10.6,0.1,9.5,2S9,6.4,10.9,7.5C11.6,7.8,12.3,8,13,8
		c0.7,0,1.4-0.2,2-0.6l4.6,4.6H46v20H31v2h17V10H20.4z M13,6c-1.1,0-2-0.9-2-2s0.9-2,2-2s2,0.9,2,2S14.1,6,13,6z"/>
	<path class="st0" d="M15,36.6c-1.9-1.1-4.4-0.5-5.5,1.4c-1.1,1.9-0.5,4.4,1.4,5.5c1.9,1.1,4.4,0.5,5.5-1.4c0.7-1.3,0.7-2.8,0-4.1
		l4-4H25v-2h-5.4L15,36.6z M13,42c-1.1,0-2-0.9-2-2s0.9-2,2-2s2,0.9,2,2S14.1,42,13,42z"/>
	<rect x="27" y="32" class="st0" width="2" height="2"/>
</g>
</svg>
