<?xml version="1.0" encoding="utf-8"?>
<!-- Generator: Adobe Illustrator 25.2.1, SVG Export Plug-In . SVG Version: 6.00 Build 0)  -->
<svg version="1.1" id="icons" xmlns="http://www.w3.org/2000/svg" xmlns:xlink="http://www.w3.org/1999/xlink" x="0px" y="0px"
	 viewBox="0 0 48 38.4" style="enable-background:new 0 0 48 38.4;" xml:space="preserve">
<style type="text/css">
	.st0{fill:#5F249F;}
</style>
<g>
	<path class="st0" d="M40,13c-0.3,0-0.7,0-1,0.1V13c0-4.4-3.6-8-8-8c-1.5,0-2.9,0.4-4.1,1.2c-2.7-5.4-9.3-7.7-14.7-5
		c-4.5,2.2-6.9,7.1-5.9,12c-4.3,1-7,5.3-6,9.6C1.1,26.4,4.3,29,8,29h8v-2H8c-3.3,0.1-6.1-2.5-6.2-5.8c-0.1-3.3,2.5-6.1,5.8-6.2h0.1
		c1.2-0.1,2.5,0.2,3.5,0.9l1.1-1.7C11,13.4,9.6,13,8.2,13C8.1,12.4,8,11.7,8,11c0-5,4-9,9-9c3.8,0,7.2,2.4,8.5,6l0.1,0.3
		c0.2,0.6,0.3,1.2,0.4,1.8l2-0.2c-0.1-0.6-0.2-1.2-0.4-1.8C30.4,6.2,34.1,7,36,9.7c0.7,1,1,2.1,1,3.3c0,0.4,0,0.8-0.1,1.1
		c-0.1,0.7-0.4,1.3-0.7,1.9l1.7,1c0.4-0.6,0.7-1.3,0.8-2c0.4-0.1,0.9-0.1,1.3,0c3.3,0,6,2.7,6,6c0,3.3-2.7,6-6,6h-8v2h8
		c4.4,0,8-3.6,8-8C48,16.6,44.4,13,40,13z"/>
	<polygon class="st0" points="24.7,20.3 20,15.6 15.3,20.3 16.7,21.7 19,19.4 19,37 21,37 21,19.4 23.3,21.7 	"/>
	<polygon class="st0" points="29,34.6 29,18 27,18 27,34.6 24.7,32.3 23.3,33.7 28,38.4 32.7,33.7 31.3,32.3 	"/>
</g>
</svg>
