<?xml version="1.0" encoding="utf-8"?>
<!-- Generator: Adobe Illustrator 24.0.1, SVG Export Plug-In . SVG Version: 6.00 Build 0)  -->
<svg version="1.1" id="Layer_1" xmlns="http://www.w3.org/2000/svg" xmlns:xlink="http://www.w3.org/1999/xlink" x="0px" y="0px"
	 viewBox="0 0 45.7 43" style="enable-background:new 0 0 45.7 43;" xml:space="preserve">
<style type="text/css">
	.st0{fill:#60249F;}
</style>
<title>Core_Values</title>
<g>
	<path class="st0" d="M21.6,17.1c1.9,1.4,3.7,3,5.4,4.6c0.2,0.2,0.4,0.3,0.7,0.3c0.3,0,0.5-0.1,0.7-0.3c1.7-1.7,3.5-3.2,5.4-4.6
		c3.2-2.5,6-4.8,6.8-8.2c0.4-2.1,0-4.3-1.3-6c-1.1-1.6-2.8-2.6-4.8-2.8c-2.6-0.3-5.1,0.7-6.8,2.7C26,0.7,23.5-0.3,20.9,0
		c-1.9,0.2-3.6,1.2-4.8,2.8c-1.3,1.7-1.7,3.9-1.3,6C15.6,12.3,18.4,14.5,21.6,17.1z M17.8,4c0.8-1.1,2-1.8,3.4-2c0.2,0,0.4,0,0.5,0
		c2.1,0,4.1,1.1,5.1,3c0.2,0.4,0.5,0.6,0.9,0.6s0.7-0.2,0.9-0.6c1.1-2,3.3-3.2,5.7-3c1.4,0.2,2.6,0.9,3.4,2c0.9,1.3,1.2,2.9,0.9,4.4
		c-0.5,2.8-3,4.7-6,7.1c-1.5,1.2-3.2,2.5-4.9,4.1c-1.7-1.6-3.4-2.9-4.9-4.1c-3-2.4-5.4-4.3-6-7.1C16.5,6.9,16.9,5.3,17.8,4z"/>
	<path class="st0" d="M19.7,8c0.6,0,1-0.4,1-1s0.4-1,1-1s1-0.4,1-1s-0.4-1-1-1c-1.7,0-3,1.3-3,3C18.7,7.6,19.2,8,19.7,8z"/>
	<path class="st0" d="M45.5,20.4c-1.3-1.4-3.2-1.9-5-1.4c-2.1,0.5-3.3,2-4.5,4.3L32.6,25c-0.7-0.6-1.6-1-2.9-1h-5.9
		c-0.3-0.2-0.6-0.4-0.9-0.6c-0.8-0.8-1.8-1.2-2.9-1.4h-5c-1.8,0.2-3.5,1-4.8,2.3c-1,1-2.4,2.4-3.3,3.2l-1.2-1.2
		c-0.4-0.4-1-0.4-1.4,0L0,30.6L1.4,32L5,28.4l1.2,1.2l8.4,8.4L11,41.6l1.4,1.4l4.3-4.3c0.4-0.4,0.4-1,0-1.4l-0.2-0.2
		C16.6,37,16.8,37,17,37h14.7c1.9,0,8.7-7.3,8.7-7.3c2-2.6,3.7-5.4,5.2-8.3C45.8,21,45.7,20.7,45.5,20.4z M39,28.3
		c-1.1,1.3-6.2,6.2-7.3,6.7H17c-0.7,0-1.4,0.2-2,0.6L8.4,29c0.9-0.8,2.3-2.2,3.3-3.2c0.9-0.9,2.1-1.5,3.3-1.7h5
		c0.6,0.2,1.2,0.5,1.7,1c0.6,0.5,1.3,0.9,2.1,1h6c1.4,0,2,0.8,2,1.5s-0.6,1.5-2,1.5h-9c-0.6,0-1,0.4-1,1s0.4,1,1,1h9
		c2.6,0,4-1.8,4-3.5c0-0.3,0-0.5-0.1-0.7l3.6-1.8c0.2-0.1,0.3-0.2,0.4-0.4c1.2-2.3,2-3.2,3.3-3.5c0.9-0.2,1.8-0.1,2.5,0.2
		C42.2,23.7,40.7,26.1,39,28.3z"/>
</g>
</svg>
