<svg xmlns="http://www.w3.org/2000/svg" viewBox="0 0 52.9 49.91"><defs><style>.cls-1{fill:#5f249f;}</style></defs><title>Documents</title><g id="icons"><path class="cls-1" d="M52.9,12,40.9,0h-25V18.91a10.48,10.48,0,0,0-6.5,8.83,11.15,11.15,0,0,0,1.73,22.17H35.94A9.9,9.9,0,0,0,44.48,45H52.9ZM41.48,3.41,49,10.91h-5.7a1.81,1.81,0,0,1-1.81-1.8Zm-5.54,44.5H11.15a9.15,9.15,0,0,1-.7-18.28l.93-.08v-.93a8.49,8.49,0,0,1,16.31-3.29l.31.73.77-.12a4.45,4.45,0,0,1,.79-.07,5.8,5.8,0,0,1,5.75,5.31l.07.88.88,0a7.91,7.91,0,0,1-.32,15.81ZM45.38,43a9.89,9.89,0,0,0-8.19-12.83,7.78,7.78,0,0,0-8-6.29,10.43,10.43,0,0,0-11.3-5.56V2H39.48V9.11a3.81,3.81,0,0,0,3.81,3.8H50.9V43Z"/></g></svg>