<?xml version="1.0" encoding="utf-8"?>
<!-- Generator: Adobe Illustrator 25.2.1, SVG Export Plug-In . SVG Version: 6.00 Build 0)  -->
<svg version="1.1" id="icons" xmlns="http://www.w3.org/2000/svg" xmlns:xlink="http://www.w3.org/1999/xlink" x="0px" y="0px"
	 viewBox="0 0 32 44" style="enable-background:new 0 0 32 44;" xml:space="preserve">
<style type="text/css">
	.st0{fill:#5F249F;}
</style>
<g>
	<path class="st0" d="M29,19h-2v-8c0-6.1-4.9-11-11-11S5,4.9,5,11v8H3c-1.7,0-3,1.3-3,3v19c0,1.7,1.3,3,3,3h26c1.7,0,3-1.3,3-3V22
		C32,20.3,30.7,19,29,19z M7,11c0-5,4-9,9-9s9,4,9,9v8H7V11z M30,41c0,0.6-0.4,1-1,1H3c-0.6,0-1-0.4-1-1V22c0-0.6,0.4-1,1-1h26
		c0.6,0,1,0.4,1,1V41z"/>
	<path class="st0" d="M19.1,25.1c-1.2-1-2.8-1.3-4.3-1c-2.7,0.7-4.3,3.4-3.7,6c0.3,1.1,0.9,2.1,1.9,2.8v3c0,1.7,1.3,3,3,3s3-1.3,3-3
		v-3c2.2-1.7,2.6-4.8,1-7C19.7,25.7,19.4,25.4,19.1,25.1z M18.3,30.9c-0.2,0.3-0.5,0.5-0.8,0.7c-0.3,0.2-0.5,0.5-0.5,0.9V36
		c0,0.6-0.4,1-1,1s-1-0.4-1-1v-3.5c0-0.4-0.2-0.7-0.5-0.9c-1.5-0.8-2-2.6-1.2-4.1s2.6-2,4.1-1.2c0.2,0.1,0.4,0.2,0.5,0.4
		C19.2,27.7,19.4,29.6,18.3,30.9z"/>
</g>
</svg>
